# xmcd
#
# Track frame offsets:
# 150
# 8440
# 29810
# 46899
# 65557
# 83858
# 104824
# 133195
# 153480
# 186757
# 206273
# 230377
# 252443
# 281338
#
# Disc length: 4007 seconds
#
#
# Revision: 1
# Processed by: cddbd v1.5.2PL0 Copyright (c) Steve Scherf et al.
# Submitted via: FreeRIP 2.943 
#
DISCID=c10fa50e
DTITLE=Adriana - Adriana  Ao Vivo
DYEAR=2007
DGENRE=Católica
TTITLE0=Adriana (ao vivo) - Nossa missão (instrumental)
TTITLE1=Adriana (ao vivo) - Gloria e magestade
TTITLE2=Adriana (ao vivo) - Nova jerusalém
TTITLE3=Adriana (ao vivo) -Entrega tudo para mim
TTITLE4=Adriana (ao vivo) - Reunidos aqui
TTITLE5=Adriana (ao vivo) - A chave do coração
TTITLE6=Adriana (ao vivo) - Abraço de pai
TTITLE7=Adriana (ao vivo) - Eternamente grata
TTITLE8=Adriana (ao vivo) - Pout Pourri lagrimas que purificam,jovem te olho, chamado
TTITLE9=Adriana (ao vivo) - Ponto de partida
TTITLE10=Adriana (ao vivo) - Olhos no espelho
TTITLE11=Adriana (ao vivo) - Humano amor de Deus
TTITLE12=Adriana (ao vivo) - Lindo Céu
TTITLE13=Adriana (ao vivo) - Nova unção
EXTD=
EXTT0=
EXTT1=
EXTT2=
EXTT3=
EXTT4=
EXTT5=
EXTT6=
EXTT7=
EXTT8=
EXTT9=
EXTT10=
EXTT11=
EXTT12=
EXTT13=
PLAYORDER=
